# xmcd CD database file
#
# Track frame offsets:
#	187
#	59690
#	93205
#	138045
#	175650
#
# Disc length: 2699 seconds
#
# Revision: 0
# Processed by: cddbd v1.5.2PL0 Copyright (c) Steve Scherf et al.
# Submitted via: CDex 1.51
#
DISCID=380a8905
DTITLE=Art Blakey's Jazz Messengers - A night in Tunisia
DYEAR=1957
DGENRE=Jazz
TTITLE0=A night in Tunisia
TTITLE1=Off the wall
TTITLE2=Theory of art
TTITLE3=Couldn't it be you?
TTITLE4=Evans
EXTD=YEAR: 1957
EXTT0=
EXTT1=
EXTT2=
EXTT3=
EXTT4=
PLAYORDER=
